<svg width="300" height="600" xmlns="http://www.w3.org/2000/svg">
  <defs>
    <linearGradient id="grad1" x1="0%" y1="0%" x2="100%" y2="100%">
      <stop offset="0%" style="stop-color:#6366f1;stop-opacity:1" />
      <stop offset="50%" style="stop-color:#8b5cf6;stop-opacity:1" />
      <stop offset="100%" style="stop-color:#ec4899;stop-opacity:1" />
    </linearGradient>
  </defs>
  
  <!-- Background -->
  <rect width="300" height="600" fill="#0f172a"/>
  
  <!-- Header -->
  <rect width="300" height="80" fill="url(#grad1)"/>
  <text x="150" y="50" font-family="Arial, sans-serif" font-size="24" fill="white" text-anchor="middle" font-weight="bold">App Preview</text>
  
  <!-- Content Cards -->
  <rect x="20" y="100" width="260" height="100" rx="12" fill="#1e293b" opacity="0.8"/>
  <rect x="30" y="110" width="80" height="80" rx="8" fill="#6366f1" opacity="0.3"/>
  <rect x="120" y="115" width="150" height="15" rx="4" fill="#94a3b8" opacity="0.5"/>
  <rect x="120" y="140" width="120" height="10" rx="4" fill="#94a3b8" opacity="0.3"/>
  <rect x="120" y="160" width="100" height="10" rx="4" fill="#94a3b8" opacity="0.3"/>
  
  <rect x="20" y="220" width="260" height="100" rx="12" fill="#1e293b" opacity="0.8"/>
  <rect x="30" y="230" width="80" height="80" rx="8" fill="#8b5cf6" opacity="0.3"/>
  <rect x="120" y="235" width="150" height="15" rx="4" fill="#94a3b8" opacity="0.5"/>
  <rect x="120" y="260" width="120" height="10" rx="4" fill="#94a3b8" opacity="0.3"/>
  <rect x="120" y="280" width="100" height="10" rx="4" fill="#94a3b8" opacity="0.3"/>
  
  <rect x="20" y="340" width="260" height="100" rx="12" fill="#1e293b" opacity="0.8"/>
  <rect x="30" y="350" width="80" height="80" rx="8" fill="#ec4899" opacity="0.3"/>
  <rect x="120" y="355" width="150" height="15" rx="4" fill="#94a3b8" opacity="0.5"/>
  <rect x="120" y="380" width="120" height="10" rx="4" fill="#94a3b8" opacity="0.3"/>
  <rect x="120" y="400" width="100" height="10" rx="4" fill="#94a3b8" opacity="0.3"/>
  
  <!-- Bottom Navigation -->
  <rect y="540" width="300" height="60" fill="#1e293b" opacity="0.9"/>
  <circle cx="60" cy="570" r="12" fill="#6366f1" opacity="0.6"/>
  <circle cx="150" cy="570" r="12" fill="#8b5cf6" opacity="0.6"/>
  <circle cx="240" cy="570" r="12" fill="#ec4899" opacity="0.6"/>
</svg>

